# xmcd CD database file
#
# Track frame offsets:
#	150
#	21055
#	29423
#	48162
#	58673
#	74870
#	94923
#	111751
#	134444
#	150644
#	168750
#	183129
#
# Disc length: 2730 seconds
#
# Revision: 0
# Processed by: cddbd v1.5.1PL0 Copyright (c) Steve Scherf et al.
# Submitted via: CDex 1.51
#
DISCID=9e0aa80c
DTITLE=FAKiE - Timeless
DYEAR=2004
DGENRE=JPop
TTITLE0=Summertime
TTITLE1=The Song Remains the Rockn Roll
TTITLE2=Ribbon in the Sky
TTITLE3=Spain
TTITLE4=What You Wont Do for Love
TTITLE5=月光
TTITLE6=Fantasy
TTITLE7=歓送の歌
TTITLE8=The World Spain Around
TTITLE9=The Salt of the Earth
TTITLE10=Into the Light
TTITLE11=こころよせて
EXTD=YEAR: 2004
EXTT0=
EXTT1=
EXTT2=
EXTT3=
EXTT4=
EXTT5=
EXTT6=
EXTT7=
EXTT8=
EXTT9=
EXTT10=
EXTT11=
PLAYORDER=
